<svg width="40" height="31" viewBox="0 0 40 31" fill="none" xmlns="http://www.w3.org/2000/svg">
<path d="M30.9086 18.0572C31.3533 18.0572 31.78 17.989 32.2047 17.9269C32.0672 18.392 31.9256 18.8652 31.6983 19.2902C31.4709 19.9077 31.116 20.443 30.763 20.9823C30.4679 21.5658 29.9475 21.9607 29.5646 22.4599C29.1638 22.9451 28.6174 23.2679 28.1847 23.6709C27.76 24.0919 27.2036 24.3024 26.761 24.5991C26.2983 24.8658 25.8955 25.1605 25.4648 25.3009L24.39 25.7459L23.4448 26.1409L24.4119 30.0264L25.6024 29.7377C25.9833 29.6414 26.4479 29.5292 26.9763 29.3948C27.5167 29.2946 28.093 29.0199 28.7351 28.7693C29.3692 28.4846 30.103 28.2921 30.785 27.835C31.4709 27.398 32.2626 27.0331 32.9605 26.4476C33.6365 25.8442 34.4521 25.3209 35.0543 24.553C35.7123 23.8353 36.3624 23.0814 36.8669 22.2234C37.4511 21.4054 37.848 20.5072 38.2667 19.619C38.6456 18.7308 38.9507 17.8226 39.1999 16.9405C39.6725 15.1722 39.8839 13.4921 39.9656 12.0546C40.0334 10.6151 39.9936 9.41815 39.9098 8.55204C39.8799 8.14305 39.8241 7.74608 39.7842 7.47141L39.7343 7.13459L39.6825 7.14662C39.3278 5.4809 38.5114 3.95017 37.3276 2.7315C36.1438 1.51283 34.641 0.656021 32.9931 0.260189C31.3452 -0.135643 29.6196 -0.0543213 28.0157 0.494743C26.4119 1.04381 24.9954 2.03818 23.9302 3.36283C22.8649 4.68749 22.1945 6.28829 21.9963 7.98006C21.7981 9.67183 22.0804 11.3854 22.8104 12.9226C23.5405 14.4599 24.6884 15.7579 26.1215 16.6665C27.5547 17.5752 29.2143 18.0573 30.9086 18.0572ZM8.97389 18.0572C9.41857 18.0572 9.8453 17.989 10.27 17.9269C10.1324 18.392 9.99087 18.8652 9.76354 19.2902C9.53622 19.9077 9.18127 20.443 8.82833 20.9823C8.53321 21.5658 8.01275 21.9607 7.62989 22.4599C7.22909 22.9451 6.68271 23.2679 6.25 23.6709C5.82527 24.0919 5.26892 24.3024 4.82624 24.5991C4.36361 24.8658 3.96082 25.1605 3.5301 25.3009L2.4553 25.7459L1.51011 26.1409L2.47723 30.0264L3.66769 29.7377C4.04856 29.6414 4.51317 29.5292 5.0416 29.3948C5.58199 29.2946 6.15827 29.0199 6.80036 28.7693C7.43248 28.4826 8.16829 28.2921 8.85026 27.833C9.53622 27.396 10.3279 27.0311 11.0258 26.4456C11.7018 25.8422 12.5173 25.3189 13.1196 24.553C13.7776 23.8353 14.4277 23.0814 14.9322 22.2234C15.5164 21.4054 15.9132 20.5072 16.332 19.619C16.7109 18.7308 17.016 17.8226 17.2652 16.9405C17.7378 15.1722 17.9492 13.4921 18.0309 12.0546C18.0987 10.6151 18.0589 9.41815 17.9751 8.55204C17.9452 8.14305 17.8894 7.74608 17.8495 7.47141L17.7996 7.13459L17.7478 7.14662C17.3931 5.4809 16.5767 3.95017 15.3929 2.7315C14.2091 1.51283 12.7063 0.656021 11.0584 0.260189C9.41052 -0.135643 7.68484 -0.0543213 6.081 0.494743C4.47715 1.04381 3.06068 2.03818 1.99545 3.36283C0.930214 4.68749 0.259735 6.28829 0.0615845 7.98006C-0.13657 9.67183 0.145699 11.3854 0.875732 12.9226C1.60576 14.4599 2.75373 15.7579 4.18684 16.6665C5.61995 17.5752 7.27962 18.0573 8.97389 18.0572Z" fill="#BDD1EA"/>
</svg>
